<svg xmlns="http://www.w3.org/2000/svg" width="1200" height="675" viewBox="0 0 1200 675" role="img">
<defs>
  <linearGradient id="ng1" x1="0" y1="0" x2="1" y2="1"><stop offset="0%" stop-color="#121110"/><stop offset="100%" stop-color="#23201C"/></linearGradient>
  <filter id="glow" x="-20%" y="-20%" width="140%" height="140%"><feGaussianBlur stdDeviation="8" result="b"/><feColorMatrix values="1 0 0 0 0  0 1 0 0 0  0 0 1 0 0  0 0 0 0.12 0"/></filter>
</defs>
<rect width="1200" height="675" fill="url(#ng1)"/>
<rect x="0.5" y="0.5" width="1199" height="674" fill="none" stroke="#2E2A26" stroke-width="1"/>
<g filter="url(#softShadow)"><rect x="72" y="68" width="1080" height="520" rx="1" fill="#1B1917" stroke="#2E2A26"/><rect x="96" y="92" width="640" height="360" fill="#121110" stroke="#2E2A26"/><rect x="96" y="92" width="640" height="360" fill="url(#ng1)" opacity="0.5"/><ellipse cx="280" cy="240" rx="210" ry="110" fill="#C8A96A" opacity="0.08" filter="url(#glow)"/><line x1="96" y1="452" x2="736" y2="452" stroke="#2E2A26" stroke-width="1"/><g transform="translate(820,210)"><rect x="0" y="40" width="140" height="110" rx="3" fill="#EDE8E0" stroke="#2E2A26"/><rect x="8" y="0" width="124" height="70" rx="6" fill="#F2EDE3" stroke="#2E2A26"/><rect x="-10" y="30" width="22" height="70" rx="6" fill="#E8E0D2" stroke="#2E2A26"/><rect x="128" y="30" width="22" height="70" rx="6" fill="#E8E0D2" stroke="#2E2A26"/></g><g transform="translate(760,380)"><ellipse cx="40" cy="58" rx="32" ry="5" fill="black" opacity="0.35"/><rect x="10" y="28" width="60" height="4" rx="2" fill="#23201C" stroke="#2E2A26"/><rect x="18" y="32" width="3" height="22" fill="#2A2520"/><rect x="59" y="32" width="3" height="22" fill="#2A2520"/><ellipse cx="40" cy="18" rx="28" ry="10" fill="#C8A96A" opacity="0.14" filter="url(#glow)"/></g></g>
<g font-family="'Cormorant Garamond', Georgia, serif" text-anchor="middle">
  <text x="600" y="327.5" font-size="11" letter-spacing="4.5" fill="#EDE8E0" font-weight="500">SALA NOCTUA — NOCHE CALIDA 16:9</text>
  <text x="600" y="349.5" font-size="8.2" letter-spacing="2" fill="#9B948B" font-family="'JetBrains Mono', monospace">vacia · marfil · muro carbon · 2700K</text>
</g>
<g font-family="'JetBrains Mono', monospace" font-size="6.5" letter-spacing="1.1" fill="#9B948B"><text x="14" y="665">NOCTUA — SALUD MENTAL</text><text x="14" y="671" fill="#C8A96A">— RESERVA PRIVADA · LUZ CALIDA 2700K · SIN PERSONAS</text></g>
</svg>